<svg width="48" height="48" viewBox="0 0 48 48" fill="none" xmlns="http://www.w3.org/2000/svg">
<path d="M8 12C10.2091 12 12 10.2091 12 8C12 5.79086 10.2091 4 8 4C5.79086 4 4 5.79086 4 8C4 10.2091 5.79086 12 8 12Z" fill="#007AFF"/>
<path d="M40 12C42.2091 12 44 10.2091 44 8C44 5.79086 42.2091 4 40 4C37.7909 4 36 5.79086 36 8C36 10.2091 37.7909 12 40 12Z" fill="#007AFF"/>
<path d="M8 44C10.2091 44 12 42.2091 12 40C12 37.7909 10.2091 36 8 36C5.79086 36 4 37.7909 4 40C4 42.2091 5.79086 44 8 44Z" fill="#007AFF"/>
<path d="M40 44C42.2091 44 44 42.2091 44 40C44 37.7909 42.2091 36 40 36C37.7909 36 36 37.7909 36 40C36 42.2091 37.7909 44 40 44Z" fill="#007AFF"/>
<path d="M24 32C28.4183 32 32 28.4183 32 24C32 19.5817 28.4183 16 24 16C19.5817 16 16 19.5817 16 24C16 28.4183 19.5817 32 24 32Z" fill="#007AFF"/>
<path d="M12 12L20 20" stroke="#007AFF" stroke-width="2"/>
<path d="M28 20L36 12" stroke="#007AFF" stroke-width="2"/>
<path d="M12 36L20 28" stroke="#007AFF" stroke-width="2"/>
<path d="M28 28L36 36" stroke="#007AFF" stroke-width="2"/>
</svg>
